<?xml version="1.0" encoding="UTF-8"?>
<svg width="26px" height="24px" viewBox="0 0 26 24" version="1.1" xmlns="http://www.w3.org/2000/svg" xmlns:xlink="http://www.w3.org/1999/xlink">
    <!-- Generator: Sketch 50.2 (55047) - http://www.bohemiancoding.com/sketch -->
    <title>nav-contact</title>
    <desc>Created with Sketch.</desc>
    <defs></defs>
    <g id="Page-1" stroke="none" stroke-width="1" fill="none" fill-rule="evenodd">
        <g id="nav-contact" fill-rule="nonzero">
            <g id="noun_1749886-copy-2" fill="#FFFFFF">
                <path d="M17.8784903,22.847462 C17.482657,23.4516286 16.795157,23.8057953 16.0659903,23.7641286 C15.3368236,23.722462 14.3993236,23.6182953 13.7534903,23.4516286 C10.8784903,22.7016286 7.89932363,20.909962 5.37849029,18.3891286 C2.85765696,15.8682953 1.06599029,12.8891286 0.315990293,10.0141286 C0.149323627,9.3682953 0.0659902934,8.45162864 0.00349029342,7.72246197 C-0.0381763732,7.01412864 0.29515696,6.32662864 0.899323627,5.9307953 L3.46182363,4.22246197 C4.12849029,3.78496197 5.02432363,4.01412864 5.37849029,4.72246197 L7.46182363,8.7432953 C7.75349029,9.3057953 7.60765696,10.0141286 7.10765696,10.409962 L5.23265696,11.8682953 C5.98265696,13.2641286 6.69099029,14.3891286 8.06599029,15.7432953 C9.33682363,17.0141286 10.4409903,17.7641286 11.8784903,18.534962 L13.357657,16.6391286 C13.7534903,16.1391286 14.4618236,15.972462 15.0243236,16.284962 L19.0659903,18.3682953 C19.7743236,18.722462 20.0034903,19.6182953 19.5659903,20.284962 L17.8784903,22.847462 Z M26,9.55545818 L16.4602344,9.55545818 L12,14 L12,0 L26,0 L26,9.55548712 L26,9.55545818 Z" id="Shape"></path>
            </g>
            <path d="M18.859941,5 L12.0033097,1 C11.9723803,0.389710211 11.9723803,0.0587691831 12.0033097,0.00717691644 C12.034239,-0.0444153502 14.3197828,1.28002704 18.859941,3.98050409 L26.0003661,0.00717691644 L26.0003661,1 L18.859941,5 Z" id="Path-Copy" fill="#C94C08"></path>
        </g>
    </g>
</svg>